# xmcd
#
# Track frame offsets:
#	150
#	17857
#	31348
#	46624
#	60661
#	74424
#	87344
#	103018
#	116392
#	133935
#	151760
#	164637
#	181620
#	193539
#	203179
#
# Disc length: 2863 seconds
#
# Revision: 0
# Processed by: cddbd v1.5.2PL0 Copyright (c) Steve Scherf et al.
# Submitted via: EasyCDDAExtractor 15.3.0.1
#
DISCID=c50b2d0f
DTITLE=Katja Lukin - Katja Lukin Levytykset 2003-13
DYEAR=2014
DGENRE=Suomi Iskelmä-Pop
TTITLE0=Vitamiini
TTITLE1=O.K
TTITLE2=Sykkivä Sydän
TTITLE3=Rahiseva Rautalanka
TTITLE4=Kaipaan Yyteriin
TTITLE5=Meren Rantaan - Duetto Katja Lukin and Ann Christine
TTITLE6=Löysin Viimein Paikan Kaivatun
TTITLE7=Fiilaten Ja Höyläten (Vuokatti Live)
TTITLE8=Amaranth
TTITLE9=Löytäjä Saa Pitää
TTITLE10=Kirkossa
TTITLE11=Herra Kädelläsi
TTITLE12=Joulupukin Maa
TTITLE13=Lunta Saa Tuiskuttaa
TTITLE14=Bonus Track - Eläköön Elämä - Katja 11v.
EXTD=
EXTT0=
EXTT1=
EXTT2=
EXTT3=
EXTT4=
EXTT5=
EXTT6=
EXTT7=
EXTT8=
EXTT9=
EXTT10=
EXTT11=
EXTT12=
EXTT13=
EXTT14=
PLAYORDER=
